PathFileType	4	(X/Y/Z)	Patient4_TMGait_0pt5_01_right_20.trc.trc
DataRate	CameraRate	NumFrames	NumMarkers	Units	OrigDataRate	OrigDataStartFrame	OrigNumFrames
75.675675675676	75.675675675676	7	33	mm	75.675675675676	1	       141
Frame#	Time	L.ASIS			Sacral			L.Shoulder			Chest			R.Shoulder			Neck			R.ASIS			R.Thigh.Superior			R.Thigh.Lateral			R.Thigh.Inferior			R.Patella			L.Thigh.Superior			L.Thigh.Lateral			L.Thigh.Inferior			L.Patella			L.Shank.Superior			L.Shank.Lateral			L.Shank.Inferior			R.Shank.Superior			R.Shank.Lateral			R.Shank.Inferior			R.Heel			R.Midfoot.Superior			R.Midfoot.Lateral			R.Toe			L.Heel			L.Midfoot.Lateral			L.Midfoot.Superior			L.Toe			L.Elbow			L.Wrist			R.Elbow			R.Wrist			
		X1	Y1	Z1	X2	Y2	Z2	X3	Y3	Z3	X4	Y4	Z4	X5	Y5	Z5	X6	Y6	Z6	X7	Y7	Z7	X8	Y8	Z8	X9	Y9	Z9	X10	Y10	Z10	X11	Y11	Z11	X12	Y12	Z12	X13	Y13	Z13	X14	Y14	Z14	X15	Y15	Z15	X16	Y16	Z16	X17	Y17	Z17	X18	Y18	Z18	X19	Y19	Z19	X20	Y20	Z20	X21	Y21	Z21	X22	Y22	Z22	X23	Y23	Z23	X24	Y24	Z24	X25	Y25	Z25	X26	Y26	Z26	X27	Y27	Z27	X28	Y28	Z28	X29	Y29	Z29	X30	Y30	Z30	X31	Y31	Z31	X32	Y32	Z32	X33	Y33	Z33	

1	26.150000000000	864.500727515077	967.920471578447	282.994716337649	645.782116484689	1007.241084937164	437.863933438144	816.710429554348	1443.035462721635	268.577855567761	918.219704924027	1371.276741184446	429.812444985944	829.229274422392	1438.269573212054	605.120078159474	815.447990334554	1500.423632602047	420.723027921446	871.965599578019	945.995908152851	557.827651303743	951.895674270639	772.522707747293	528.087460062042	907.165615720124	651.065021519918	597.826304725050	996.970262331820	609.519920930575	519.810288377781	1013.291990225658	495.700229268464	540.856410399810	905.590182798098	750.544868249848	313.420183064285	810.943229820682	637.456791549285	258.938245925203	889.878751650258	557.557800934718	324.207541833027	886.375512677462	488.517860839367	337.534622745893	861.068534399259	417.586967005378	330.605070625087	772.629842053061	301.987287018920	280.357284162618	820.192012731529	193.285033187570	357.778900858780	937.536852262023	421.219036829421	546.628771889617	817.415278435965	378.528920351922	606.302014847584	804.437664980178	269.827680912228	556.720801250978	604.030720179899	205.911111393978	527.114002560880	772.487248342026	148.980535683128	569.039196257625	663.241591166969	149.544283774517	602.900096457069	838.341256886558	39.103570309950	602.685824359716	689.780590453898	38.120152889123	402.834760728419	765.290712087655	34.777535781018	322.931215966430	847.943356782170	95.794455369760	350.290741684450	977.033801507990	43.867368773497	325.776817422189	795.952647475015	1101.330986837710	118.168814270778	1000.270684605691	939.879402231943	113.147671369395	754.180952027530	1096.205783871187	710.492990704789	799.025399786754	837.994087635927	696.341418476837	
2	26.163214285714	864.820282766497	968.022682096545	282.860707149087	645.577619315962	1007.536308354973	436.986342268393	817.996061519086	1443.129182455552	267.599880275231	918.276008499593	1371.477494910653	429.590849104955	828.269293261610	1438.828138548343	604.296953129733	815.606997041489	1500.715350950677	419.746587405239	871.282349737779	946.619147529235	557.671043979950	951.918669187146	774.194755255112	527.524365788860	909.176201125198	652.695268684574	597.795771133262	998.009305065901	611.591449424781	518.630347686651	1016.301090847801	499.208134017963	540.310765471892	903.273196534174	749.679863889709	313.446501854490	807.326780385481	637.588195893064	258.569677081683	885.115073853715	556.861001020538	323.795512055098	880.769250365442	487.997201263723	337.148488090815	855.329978440281	417.362099755594	330.212536111487	766.376542357390	302.137099544984	280.109644985507	813.604386288797	193.249828942942	357.508072037994	943.827408120379	422.886625811303	546.882319197766	826.331591903408	374.834269702278	606.729332040921	818.867278044985	265.715198197174	557.504326008766	622.634071119460	191.424469477360	527.931727762125	793.071173240337	144.264127283073	570.495708467838	684.376266448652	139.185183405368	604.299728092217	864.427369506610	38.732286602423	605.000719180937	682.757912026570	38.224479433394	402.774083855433	758.292630707428	34.795170959116	322.893816636529	841.010408245382	95.762976317673	350.176894428853	970.077524980565	43.671008855749	325.724195544207	800.974087769190	1101.616698634183	116.815830072893	1010.140417165055	947.569529374591	112.807134444878	746.076712512051	1099.070729646293	709.656947672631	781.983407090632	839.954697210937	695.861275183736	
3	26.176428571429	865.131558063066	968.094376374457	282.750521299894	645.381826529577	1007.797564417433	436.144063044887	819.237085257087	1443.179281640463	266.654057213163	918.323721850516	1371.651166454210	429.388294936900	827.324190581469	1439.369316834295	603.500741820118	815.761114157991	1500.971492011747	418.788966070205	870.609090798706	947.192462131584	557.535468287038	951.870133571524	775.746810111865	527.007986753793	911.021024870922	654.225402266094	597.812347358051	998.901019287129	613.528246080435	517.537373566674	1019.141935872880	502.625022337968	539.827320165530	900.992147692457	748.808402118964	313.469214814304	803.738520798909	637.709434838446	258.214281352189	880.387520026155	556.163236784786	323.395496747129	875.209016583608	487.473078254338	336.775338070889	849.632057333096	417.126934379193	329.836742996679	760.168823740013	302.279619311250	279.874069753007	807.062424005658	193.207209118136	357.248131174373	949.982579997262	424.484114197717	547.182594624365	835.189465644651	371.072541805265	607.228904853964	833.248883511302	261.604009359971	558.341759373803	641.321885186422	176.975791698833	528.826682424805	813.648634031330	139.643424284384	572.029476524911	705.559541059217	128.881468198087	605.762842750133	890.439968155698	38.483153282435	607.309257615739	675.782764168425	38.324083811370	402.708653124900	751.337283135206	34.809057923032	322.859019418218	834.119031740461	95.730372721853	350.069024204904	963.163839154441	43.480025854378	325.673369260725	805.956285913875	1101.861543438865	115.508479708843	1019.882502481591	955.207350462619	112.514316859708	738.025803895192	1101.962541896124	708.843841630962	765.281400680836	842.004421917657	695.412973737358	
4	26.189642857143	865.424632331189	968.104297667630	282.694327680785	645.199670348418	1007.996850736325	435.375117820845	820.398712905609	1443.148020779925	265.779131635100	918.360521434318	1371.769053179405	429.228699669921	826.418336916172	1439.871803003670	602.763654617063	815.913296336402	1501.158756141774	417.879143139383	869.952705109677	947.669662139787	557.451107323636	951.680203200308	777.061444965421	526.602532728739	912.520216428605	655.552401332094	597.931364536312	999.502288355786	615.196434649494	516.640513671422	1021.632143795000	505.848687080702	539.474459812260	898.782781626453	747.925589302249	313.500058852976	800.220633831146	637.808228371062	257.893501931452	875.747969774617	555.463820559190	323.030445377651	869.758509093730	486.940203628808	336.435766059280	844.031394173836	416.871211608136	329.499260578908	754.062375082151	302.409925109581	279.666208920259	800.613982465302	193.150357148285	357.012291209069	955.848129794580	425.955085575154	547.571720909430	843.919541861194	367.214684916723	607.857632107777	847.505215561275	257.549528219916	559.265142379133	660.153217996640	162.703042636105	529.848583726916	834.156664323845	135.255741611149	573.658338063209	726.805637340001	118.770126748257	607.310505509901	916.237638219839	38.533869729392	609.562576305386	668.899019129752	38.417386705008	402.637799057286	744.464560866546	34.818861481945	322.828816025678	827.308547835819	95.695969223419	349.972862768630	956.331510173652	43.298173904107	325.626494884290	810.848642488887	1102.026432121613	114.308480366359	1029.344675569371	962.714349792412	112.327635502087	730.145860882500	1104.871756761540	708.082726712690	749.326394317116	844.184847778386	695.028176034096	
5	26.202857142857	865.687082168741	968.024420283759	282.720499916682	645.032650396201	1008.114859893015	434.709956357307	821.458772820073	1443.005642744887	265.007740515363	918.387435285244	1371.806224877562	429.133326030561	825.573808796531	1440.316749611882	602.112547106312	816.070279984392	1501.250348146944	417.043030090753	869.315337836632	948.013845991689	557.448296304291	951.289178472251	778.045704222296	526.367737685432	913.516095724444	656.590835893308	598.202457892966	999.696713009815	616.488621741942	516.042874075615	1023.619868107426	508.799148654323	539.313967359432	896.668385308655	747.024201756673	313.555349809981	796.803086131459	637.873717082962	257.628422511600	871.232184093404	554.759439232849	322.723458951302	864.463274834487	486.391968262995	336.148535926852	838.564090010056	416.584841265066	329.220190047764	748.089242905601	302.525051819812	279.500470900991	794.279607124608	193.072473025064	356.812541092200	961.305637792344	427.262912075241	548.082251251148	852.490816200749	363.242633188100	608.661467101038	861.602680379539	253.613091274767	560.293166890602	679.226299107782	148.731434858365	531.033437849001	854.583583332413	131.233562785421	575.380432661505	748.179811303583	108.978415100647	608.945235607673	941.749052506317	39.063781707070	611.695897834513	662.119387454190	38.503911801188	402.561532496419	737.685109965256	34.824825333861	322.804754708655	820.589176229695	95.658974739076	349.893098435792	949.589898826878	43.127108381641	325.585222866792	815.618732712600	1102.079622802313	113.271175755454	1038.416757348424	970.037150680237	112.301124024927	722.542804343934	1107.783614593883	707.397026192710	734.437268035021	846.514262791549	694.732747042828	
6	26.216071428571	865.906491294674	967.834151419913	282.853378879953	644.879080821073	1008.142938859975	434.169919795644	822.409321372484	1442.734255760448	264.365033419480	918.409251849965	1371.744014593409	429.119364547491	824.810029853631	1440.688636160421	601.567839246543	816.241936234571	1501.228858173201	416.303166332236	868.695340626087	948.201079029101	557.555103911689	950.655471116216	778.639643874232	526.354451478765	913.888607089497	657.280350782984	598.664576901163	999.407434985894	617.333499646783	515.832229878225	1024.995851140780	511.421140331293	539.394666907597	894.660713233793	746.097211704332	313.655809136649	793.507276647485	637.897270933347	257.438556894105	866.864567240145	554.045701392548	322.496822656797	859.355282093256	485.821713393208	335.929960791156	833.251848608592	416.259357533855	329.016961755769	742.264851407927	302.624428798695	279.388964161207	788.060668974150	192.967795591534	356.658786105448	966.274006712892	428.393185808428	548.732512936375	860.896725877614	359.160409141636	609.667179727160	875.527284996654	249.865032421383	561.425805875357	698.631099823402	135.189905291718	532.394410145176	874.929307605739	127.697642511379	577.167038467614	769.749227715532	99.631048402371	610.644224506169	966.930830867188	40.234695448597	613.630490776906	655.434892817006	38.584675155440	402.480927298109	730.990045823951	34.828042840068	322.787841103700	813.951772658441	95.618644155522	349.832972836923	942.928668917578	42.966342522772	325.550614368510	820.246531976972	1102.000043099848	112.442936929240	1047.024935841050	977.138022231324	112.479706279708	715.317819602109	1110.670749957462	706.804443162273	720.843406964659	848.977909137594	694.544626795422	
7	26.229285714286	866.074903479479	967.523384066607	283.112147882424	644.735218440247	1008.082581955219	433.767351039375	823.256169417999	1442.329163022610	263.868676912796	918.434208191893	1371.571222119742	429.199663524425	824.143285151731	1440.975696434771	601.143635837991	816.440010130267	1501.087194374592	415.678898198167	868.088877336976	948.221720235144	557.795554430665	949.759941197325	778.818351036711	526.602400627534	913.564875488401	657.588777901749	599.343664692448	998.602053418267	617.698783720199	516.073580909141	1025.697991595677	513.683120787391	539.747977000582	892.761959655196	745.139718597890	313.825965595968	790.349241396174	637.872853288029	257.340928548631	862.662115327442	553.318483625775	322.371216346207	854.456122532284	485.223399847967	335.794184275384	828.107196978717	415.888934723019	328.903516495126	736.594134443711	302.709999664221	279.340804183576	781.946855092958	192.832602904755	356.558234331553	970.706233407971	429.352071235798	549.525585214350	869.139920778435	354.997918074131	610.877806193514	889.264635599599	246.382703483235	562.643732369291	718.414177845234	122.216934928706	533.917143042699	895.174738719823	124.747694248510	578.962058475068	791.544919925395	90.850653494703	612.359066447073	991.734571004411	42.173474608829	615.282683166003	648.823961333486	38.662633850430	402.398200538382	724.359690058341	34.830683316615	322.778538495413	807.376712557226	95.574485676154	349.794114571742	936.326686431021	42.813680053815	325.523169324868	824.719090728550	1101.778350814276	111.860092302289	1055.124335945187	983.986313963803	112.896514130652	708.570374901439	1113.489659308906	706.318014094724	708.694625962049	851.526217267519	694.473376583713	
